<?xml version="1.0" standalone="no"?>
<!DOCTYPE svg PUBLIC "-//W3C//DTD SVG 20010904//EN"
 "ttp://www.w3.org/TR/2001/REC-SVG-20010904/DTD/svg10.dtd">
<svg version="1.0" xmlns="http://www.w3.org/2000/svg"
 width="416.000000pt" height="416.000000pt" viewBox="0 0 416.000000 416.000000"
 preserveAspectRatio="xMidYMid meet">

<g transform="translate(0.000000,416.000000) scale(0.100000,-0.100000)"
fill="#000000" stroke="none">
<path d="M2481 2904 c-12 -15 -21 -30 -21 -35 0 -5 -93 -10 -207 -11 l-208 -3
-3 -77 -3 -78 46 0 45 0 0 -109 0 -110 -42 -3 -43 -3 -5 -55 -5 -55 -37 -3
-37 -3 -3 -57 -3 -57 -155 -5 c-144 -5 -159 -7 -211 -33 -69 -33 -132 -100
-166 -173 l-25 -55 -121 3 -122 3 -3 32 c-4 38 -42 73 -79 73 -34 0 -73 -42
-73 -80 0 -29 -2 -30 -41 -30 -82 0 -128 -90 -79 -153 16 -20 31 -27 68 -29
46 -3 47 -4 53 -42 16 -98 137 -97 149 0 l5 39 119 0 119 0 33 -64 c42 -83 84
-125 164 -164 l65 -32 545 0 545 0 56 26 c79 37 133 90 171 167 30 60 33 75
33 157 0 82 -3 97 -33 157 -36 74 -96 133 -170 170 -42 20 -65 23 -199 26
l-153 4 0 48 c0 53 -11 67 -55 72 -29 3 -30 6 -35 58 l-5 55 -42 3 -43 3 0
110 0 109 95 0 c95 0 96 0 106 -27 13 -34 26 -43 62 -43 54 0 67 28 67 144 0
89 -3 107 -21 130 -13 17 -30 26 -49 26 -19 0 -36 -9 -49 -26z m74 -124 l0
-105 -25 0 c-25 0 -25 1 -28 94 -3 110 0 124 30 119 22 -3 23 -7 23 -108z
m-97 -3 l3 -37 -193 2 -193 3 1 25 c1 14 2 31 3 38 1 10 42 12 189 10 l187 -3
3 -38z m-228 -187 l0 -110 -30 0 -30 0 0 110 0 110 30 0 30 0 0 -110z m90
-190 l0 -41 -122 3 -123 3 -1 25 c-1 49 1 50 127 50 l119 0 0 -40z m86 -95 c4
-8 3 -26 0 -40 l-6 -25 -200 0 -200 0 -6 25 c-14 54 -11 55 206 55 169 0 202
-2 206 -15z m196 -267 l3 -163 183 -3 c198 -3 192 -1 176 -59 -6 -22 -11 -23
-153 -25 -122 -3 -146 -5 -146 -18 0 -12 23 -15 133 -18 109 -2 132 -5 132
-18 0 -28 -84 -107 -145 -135 l-60 -29 -525 0 -525 0 -60 29 c-122 57 -208
201 -190 319 18 123 101 228 212 268 30 10 137 13 500 14 l463 0 2 -162z m174
141 c94 -35 170 -129 189 -232 l7 -37 -166 0 -166 0 0 145 0 145 40 0 c21 0
65 -10 96 -21z m-1670 -140 c10 -17 13 -270 3 -296 -9 -25 -38 -30 -57 -11
-17 17 -17 289 0 306 15 15 45 16 54 1z m-106 -154 l0 -55 -32 0 c-32 0 -78
32 -78 55 0 30 32 55 71 55 l39 0 0 -55z m388 3 l-3 -53 -115 0 -115 0 -3 53
-3 52 121 0 121 0 -3 -52z"/>
<path d="M1716 1977 c-42 -43 -44 -47 -39 -94 6 -58 23 -87 66 -113 43 -27 96
-25 138 3 43 29 59 60 59 120 0 40 -5 53 -33 84 -30 32 -41 37 -91 41 -57 5
-57 4 -100 -41z m146 -8 c11 -6 26 -25 33 -42 42 -101 -79 -185 -156 -108 -40
40 -40 88 0 130 31 33 82 42 123 20z"/>
<path d="M2242 1995 c-82 -69 -81 -167 1 -222 91 -63 207 4 207 120 0 40 -5
53 -33 84 -29 31 -41 37 -88 41 -49 4 -59 1 -87 -23z m142 -40 c37 -34 37 -98
-1 -137 -58 -60 -163 -17 -163 67 0 82 103 126 164 70z"/>
</g>
</svg>
